<?xml version="1.0" encoding="UTF-8"?>
<svg xmlns="http://www.w3.org/2000/svg" xmlns:xlink="http://www.w3.org/1999/xlink" width="40pt" height="40pt" viewBox="0 0 40 40" version="1.1">
<g id="surface6353210">
<path style="fill-rule:nonzero;fill:rgb(59.607846%,80.000001%,99.215686%);fill-opacity:1;stroke-width:10;stroke-linecap:butt;stroke-linejoin:round;stroke:rgb(80.000001%,80.000001%,80.000001%);stroke-opacity:1;stroke-miterlimit:10;" d="M 86.000003 165.544442 C 42.135551 165.544442 6.455564 129.864455 6.455564 86.000003 C 6.455564 42.135551 42.135551 6.455564 86.000003 6.455564 C 129.864455 6.455564 165.544442 42.135551 165.544442 86.000003 C 165.544442 129.864455 129.864455 165.544442 86.000003 165.544442 Z M 86.000003 165.544442 " transform="matrix(0.21907,0,0,0.21907,1.16,1.16)"/>
<path style="fill-rule:nonzero;fill:rgb(27.843139%,53.333336%,78.039217%);fill-opacity:1;stroke-width:10;stroke-linecap:butt;stroke-linejoin:round;stroke:rgb(80.000001%,80.000001%,80.000001%);stroke-opacity:1;stroke-miterlimit:10;" d="M 86.000003 8.595293 C 43.330233 8.595293 8.595293 43.330233 8.595293 86.000003 C 8.595293 128.669772 43.330233 163.404712 86.000003 163.404712 C 128.669772 163.404712 163.404712 128.669772 163.404712 86.000003 C 163.404712 43.330233 128.669772 8.595293 86.000003 8.595293 M 86.000003 4.298003 C 131.11263 4.298003 167.702002 40.887375 167.702002 86.000003 C 167.702002 131.11263 131.11263 167.702002 86.000003 167.702002 C 40.887375 167.702002 4.298003 131.11263 4.298003 86.000003 C 4.298003 40.887375 40.887375 4.298003 86.000003 4.298003 Z M 86.000003 4.298003 " transform="matrix(0.21907,0,0,0.21907,1.16,1.16)"/>
<path style="fill-rule:nonzero;fill:rgb(100%,100%,100%);fill-opacity:1;stroke-width:10;stroke-linecap:butt;stroke-linejoin:round;stroke:rgb(80.000001%,80.000001%,80.000001%);stroke-opacity:1;stroke-miterlimit:10;" d="M 86.000003 133.305853 C 59.913136 133.305853 38.694153 112.08687 38.694153 86.000003 C 38.694153 59.913136 59.913136 38.694153 86.000003 38.694153 C 112.08687 38.694153 133.305853 59.913136 133.305853 86.000003 C 133.305853 112.08687 112.08687 133.305853 86.000003 133.305853 Z M 86.000003 47.306563 C 64.656202 47.306563 47.306563 64.656202 47.306563 86.000003 C 47.306563 107.343803 64.656202 124.693442 86.000003 124.693442 C 107.343803 124.693442 124.693442 107.343803 124.693442 86.000003 C 124.693442 64.656202 107.343803 47.306563 86.000003 47.306563 Z M 86.000003 47.306563 " transform="matrix(0.21907,0,0,0.21907,1.16,1.16)"/>
<path style="fill-rule:nonzero;fill:rgb(100%,100%,100%);fill-opacity:1;stroke-width:10;stroke-linecap:butt;stroke-linejoin:round;stroke:rgb(80.000001%,80.000001%,80.000001%);stroke-opacity:1;stroke-miterlimit:10;" d="M 107.504283 86.000003 L 68.793012 107.504283 L 68.793012 64.495723 Z M 107.504283 86.000003 " transform="matrix(0.21907,0,0,0.21907,1.16,1.16)"/>
<path style=" stroke:none;fill-rule:nonzero;fill:rgb(94.509804%,76.862746%,5.882353%);fill-opacity:1;" d="M 20 37.425781 C 10.390625 37.425781 2.574219 29.609375 2.574219 20 C 2.574219 10.390625 10.390625 2.574219 20 2.574219 C 29.609375 2.574219 37.425781 10.390625 37.425781 20 C 37.425781 29.609375 29.609375 37.425781 20 37.425781 Z M 20 37.425781 "/>
<path style=" stroke:none;fill-rule:nonzero;fill:rgb(20%,20%,20%);fill-opacity:1;" d="M 20 3.042969 C 29.347656 3.042969 36.957031 10.652344 36.957031 20 C 36.957031 29.347656 29.347656 36.957031 20 36.957031 C 10.652344 36.957031 3.042969 29.347656 3.042969 20 C 3.042969 10.652344 10.652344 3.042969 20 3.042969 M 20 2.101562 C 10.117188 2.101562 2.101562 10.117188 2.101562 20 C 2.101562 29.882812 10.117188 37.898438 20 37.898438 C 29.882812 37.898438 37.898438 29.882812 37.898438 20 C 37.898438 10.117188 29.882812 2.101562 20 2.101562 Z M 20 2.101562 "/>
<path style=" stroke:none;fill-rule:nonzero;fill:rgb(20%,20%,20%);fill-opacity:1;" d="M 20 30.363281 C 14.285156 30.363281 9.636719 25.714844 9.636719 20 C 9.636719 14.285156 14.285156 9.636719 20 9.636719 C 25.714844 9.636719 30.363281 14.285156 30.363281 20 C 30.363281 25.714844 25.714844 30.363281 20 30.363281 Z M 20 11.523438 C 15.324219 11.523438 11.523438 15.324219 11.523438 20 C 11.523438 24.675781 15.324219 28.476562 20 28.476562 C 24.675781 28.476562 28.476562 24.675781 28.476562 20 C 28.476562 15.324219 24.675781 11.523438 20 11.523438 Z M 20 11.523438 "/>
<path style=" stroke:none;fill-rule:nonzero;fill:rgb(20%,20%,20%);fill-opacity:1;" d="M 16.230469 15.289062 L 16.230469 24.710938 L 24.710938 20 Z M 16.230469 15.289062 "/>
</g>
</svg>
